<mxfile host="app.diagrams.net" modified="2023-11-13T17:32:47.170Z" agent="Mozilla/5.0 (X11; Linux x86_64) AppleWebKit/537.36 (KHTML, like Gecko) Chrome/105.0.0.0 Safari/537.36 OPR/91.0.4516.65" etag="5GcnVVw7xdkTSeAk1koD" version="22.1.0" type="device" pages="2">
  <diagram id="15Z7u13qUpskbDZypfcT" name="Page-3">
    <mxGraphModel dx="1690" dy="490" grid="1" gridSize="10" guides="1" tooltips="1" connect="1" arrows="1" fold="1" page="1" pageScale="1" pageWidth="850" pageHeight="1100" math="0" shadow="0">
      <root>
        <mxCell id="0" />
        <mxCell id="1" parent="0" />
        <mxCell id="l2-pCrX3TVzEVfKaEOEA-9" value="setCurrentUser(User)" style="html=1;align=left;spacingLeft=2;endArrow=block;rounded=0;edgeStyle=orthogonalEdgeStyle;curved=0;rounded=0;" parent="1" edge="1">
          <mxGeometry relative="1" as="geometry">
            <mxPoint x="1778" y="398" as="sourcePoint" />
            <Array as="points">
              <mxPoint x="1808" y="428" />
            </Array>
            <mxPoint x="1783" y="428" as="targetPoint" />
          </mxGeometry>
        </mxCell>
        <mxCell id="YN0ZQsqefChDbZpPccXX-24" value="convertEnum(String)" style="html=1;align=left;spacingLeft=2;endArrow=block;rounded=0;edgeStyle=orthogonalEdgeStyle;curved=0;rounded=0;" parent="1" edge="1">
          <mxGeometry relative="1" as="geometry">
            <mxPoint x="836" y="555" as="sourcePoint" />
            <Array as="points">
              <mxPoint x="866" y="585" />
            </Array>
            <mxPoint x="841" y="585" as="targetPoint" />
          </mxGeometry>
        </mxCell>
        <mxCell id="YN0ZQsqefChDbZpPccXX-17" value="setCurrentUser(User)" style="html=1;verticalAlign=bottom;endArrow=block;curved=0;rounded=0;startArrow=none;startFill=0;endFill=1;fillColor=#ffe6cc;strokeColor=#000000;" parent="1" edge="1">
          <mxGeometry relative="1" as="geometry">
            <mxPoint x="1310" y="340" as="sourcePoint" />
            <mxPoint x="170" y="340" as="targetPoint" />
          </mxGeometry>
        </mxCell>
        <mxCell id="YN0ZQsqefChDbZpPccXX-22" value="navigateToModule()" style="html=1;verticalAlign=bottom;endArrow=block;curved=0;rounded=0;entryX=1;entryY=0;entryDx=0;entryDy=5;startArrow=none;startFill=0;endFill=1;" parent="1" edge="1">
          <mxGeometry relative="1" as="geometry">
            <mxPoint x="1140" y="693" as="sourcePoint" />
            <mxPoint x="840" y="693" as="targetPoint" />
          </mxGeometry>
        </mxCell>
        <mxCell id="YN0ZQsqefChDbZpPccXX-6" value="showMenuList(ArrayList&amp;lt;String&amp;gt;)" style="html=1;verticalAlign=bottom;endArrow=block;curved=0;rounded=0;startArrow=none;startFill=0;endFill=1;exitX=0.475;exitY=0.158;exitDx=0;exitDy=0;exitPerimeter=0;" parent="1" source="YN0ZQsqefChDbZpPccXX-2" target="YN0ZQsqefChDbZpPccXX-9" edge="1">
          <mxGeometry x="-0.0141" y="-5" relative="1" as="geometry">
            <mxPoint x="980" y="509" as="sourcePoint" />
            <mxPoint x="853" y="507" as="targetPoint" />
            <mxPoint as="offset" />
          </mxGeometry>
        </mxCell>
        <mxCell id="YN0ZQsqefChDbZpPccXX-12" value="getMenuSelection():String" style="html=1;verticalAlign=bottom;endArrow=none;curved=0;rounded=0;entryX=1;entryY=0;entryDx=0;entryDy=5;startArrow=block;startFill=1;endFill=0;" parent="1" edge="1">
          <mxGeometry relative="1" as="geometry">
            <mxPoint x="1007" y="533" as="sourcePoint" />
            <mxPoint x="837" y="533" as="targetPoint" />
          </mxGeometry>
        </mxCell>
        <mxCell id="Hnz3JGqIeciN1Oyf4-zJ-24" value="" style="line;strokeWidth=2;fillColor=none;align=left;verticalAlign=middle;spacingTop=-1;spacingLeft=3;spacingRight=3;rotatable=0;labelPosition=right;points=[];portConstraint=eastwest;strokeColor=inherit;dashed=1;" parent="1" vertex="1">
          <mxGeometry x="70" y="383" width="670" height="8" as="geometry" />
        </mxCell>
        <mxCell id="Hnz3JGqIeciN1Oyf4-zJ-42" value="Exception(String)" style="html=1;verticalAlign=bottom;endArrow=block;curved=0;rounded=0;startArrow=none;startFill=0;endFill=1;entryX=1;entryY=0;entryDx=0;entryDy=5;entryPerimeter=0;" parent="1" edge="1">
          <mxGeometry relative="1" as="geometry">
            <mxPoint x="668.5" y="455.0000000000001" as="sourcePoint" />
            <mxPoint x="360" y="455.0000000000001" as="targetPoint" />
          </mxGeometry>
        </mxCell>
        <mxCell id="Hnz3JGqIeciN1Oyf4-zJ-18" value="alt" style="shape=umlFrame;whiteSpace=wrap;html=1;pointerEvents=0;" parent="1" vertex="1">
          <mxGeometry x="70" y="306" width="670" height="214" as="geometry" />
        </mxCell>
        <mxCell id="Hnz3JGqIeciN1Oyf4-zJ-30" value="checkLogin()" style="html=1;verticalAlign=bottom;endArrow=none;curved=0;rounded=0;startArrow=block;startFill=1;endFill=0;" parent="1" source="Hnz3JGqIeciN1Oyf4-zJ-26" edge="1">
          <mxGeometry relative="1" as="geometry">
            <mxPoint x="503.5" y="324" as="sourcePoint" />
            <mxPoint x="170" y="324" as="targetPoint" />
          </mxGeometry>
        </mxCell>
        <mxCell id="rj0IfJwD1Pvj38hlPZC0-1" value=":LoginController" style="shape=umlLifeline;perimeter=lifelinePerimeter;whiteSpace=wrap;html=1;container=1;dropTarget=0;collapsible=0;recursiveResize=0;outlineConnect=0;portConstraint=eastwest;newEdgeStyle={&quot;curved&quot;:0,&quot;rounded&quot;:0};" parent="1" vertex="1">
          <mxGeometry x="107" y="67" width="100" height="933" as="geometry" />
        </mxCell>
        <mxCell id="Hnz3JGqIeciN1Oyf4-zJ-7" value="" style="html=1;points=[[0,0,0,0,5],[0,1,0,0,-5],[1,0,0,0,5],[1,1,0,0,-5]];perimeter=orthogonalPerimeter;outlineConnect=0;targetShapes=umlLifeline;portConstraint=eastwest;newEdgeStyle={&quot;curved&quot;:0,&quot;rounded&quot;:0};" parent="rj0IfJwD1Pvj38hlPZC0-1" vertex="1">
          <mxGeometry x="46" y="58" width="10" height="712" as="geometry" />
        </mxCell>
        <mxCell id="Hnz3JGqIeciN1Oyf4-zJ-1" value=":LoginView" style="shape=umlLifeline;perimeter=lifelinePerimeter;whiteSpace=wrap;html=1;container=1;dropTarget=0;collapsible=0;recursiveResize=0;outlineConnect=0;portConstraint=eastwest;newEdgeStyle={&quot;curved&quot;:0,&quot;rounded&quot;:0};" parent="1" vertex="1">
          <mxGeometry x="304" y="108" width="100" height="900" as="geometry" />
        </mxCell>
        <mxCell id="Hnz3JGqIeciN1Oyf4-zJ-11" value="" style="html=1;points=[[0,0,0,0,5],[0,1,0,0,-5],[1,0,0,0,5],[1,1,0,0,-5]];perimeter=orthogonalPerimeter;outlineConnect=0;targetShapes=umlLifeline;portConstraint=eastwest;newEdgeStyle={&quot;curved&quot;:0,&quot;rounded&quot;:0};" parent="Hnz3JGqIeciN1Oyf4-zJ-1" vertex="1">
          <mxGeometry x="45" y="100" width="10" height="40" as="geometry" />
        </mxCell>
        <mxCell id="Hnz3JGqIeciN1Oyf4-zJ-29" value="" style="html=1;points=[[0,0,0,0,5],[0,1,0,0,-5],[1,0,0,0,5],[1,1,0,0,-5]];perimeter=orthogonalPerimeter;outlineConnect=0;targetShapes=umlLifeline;portConstraint=eastwest;newEdgeStyle={&quot;curved&quot;:0,&quot;rounded&quot;:0};" parent="Hnz3JGqIeciN1Oyf4-zJ-1" vertex="1">
          <mxGeometry x="46" y="153" width="10" height="40" as="geometry" />
        </mxCell>
        <mxCell id="Hnz3JGqIeciN1Oyf4-zJ-43" value="" style="html=1;points=[[0,0,0,0,5],[0,1,0,0,-5],[1,0,0,0,5],[1,1,0,0,-5]];perimeter=orthogonalPerimeter;outlineConnect=0;targetShapes=umlLifeline;portConstraint=eastwest;newEdgeStyle={&quot;curved&quot;:0,&quot;rounded&quot;:0};" parent="Hnz3JGqIeciN1Oyf4-zJ-1" vertex="1">
          <mxGeometry x="46" y="341" width="10" height="50" as="geometry" />
        </mxCell>
        <mxCell id="Hnz3JGqIeciN1Oyf4-zJ-2" value="" style="endArrow=none;endFill=0;endSize=12;html=1;rounded=0;startArrow=block;startFill=1;" parent="1" edge="1">
          <mxGeometry width="160" relative="1" as="geometry">
            <mxPoint x="166" y="133" as="sourcePoint" />
            <mxPoint x="300" y="133" as="targetPoint" />
          </mxGeometry>
        </mxCell>
        <mxCell id="Hnz3JGqIeciN1Oyf4-zJ-3" value="LoginController()" style="edgeLabel;html=1;align=center;verticalAlign=middle;resizable=0;points=[];" parent="Hnz3JGqIeciN1Oyf4-zJ-2" vertex="1" connectable="0">
          <mxGeometry x="-0.1237" y="1" relative="1" as="geometry">
            <mxPoint y="1" as="offset" />
          </mxGeometry>
        </mxCell>
        <mxCell id="Hnz3JGqIeciN1Oyf4-zJ-8" value="displayUsername()" style="html=1;verticalAlign=bottom;endArrow=none;curved=0;rounded=0;entryX=1;entryY=0;entryDx=0;entryDy=5;startArrow=block;startFill=1;endFill=0;" parent="1" edge="1">
          <mxGeometry relative="1" as="geometry">
            <mxPoint x="350" y="219" as="sourcePoint" />
            <mxPoint x="168" y="219" as="targetPoint" />
          </mxGeometry>
        </mxCell>
        <mxCell id="Hnz3JGqIeciN1Oyf4-zJ-12" value="displayPassword()" style="html=1;verticalAlign=bottom;endArrow=none;curved=0;rounded=0;startArrow=block;startFill=1;endFill=0;" parent="1" target="Hnz3JGqIeciN1Oyf4-zJ-21" edge="1">
          <mxGeometry relative="1" as="geometry">
            <mxPoint x="350" y="269" as="sourcePoint" />
            <mxPoint x="158" y="269" as="targetPoint" />
          </mxGeometry>
        </mxCell>
        <mxCell id="Hnz3JGqIeciN1Oyf4-zJ-21" value="" style="html=1;points=[[0,0,0,0,5],[0,1,0,0,-5],[1,0,0,0,5],[1,1,0,0,-5]];perimeter=orthogonalPerimeter;outlineConnect=0;targetShapes=umlLifeline;portConstraint=eastwest;newEdgeStyle={&quot;curved&quot;:0,&quot;rounded&quot;:0};" parent="1" vertex="1">
          <mxGeometry x="158" y="192" width="10" height="318" as="geometry" />
        </mxCell>
        <mxCell id="Hnz3JGqIeciN1Oyf4-zJ-22" value="handleLogin()" style="html=1;align=left;spacingLeft=2;endArrow=block;rounded=0;edgeStyle=orthogonalEdgeStyle;curved=0;rounded=0;" parent="1" source="Hnz3JGqIeciN1Oyf4-zJ-21" edge="1">
          <mxGeometry relative="1" as="geometry">
            <mxPoint x="164" y="177" as="sourcePoint" />
            <Array as="points">
              <mxPoint x="163" y="187" />
              <mxPoint x="194" y="187" />
              <mxPoint x="194" y="207" />
            </Array>
            <mxPoint x="169" y="207.0588235294117" as="targetPoint" />
          </mxGeometry>
        </mxCell>
        <mxCell id="Hnz3JGqIeciN1Oyf4-zJ-25" value=":UserRepository" style="shape=umlLifeline;perimeter=lifelinePerimeter;whiteSpace=wrap;html=1;container=1;dropTarget=0;collapsible=0;recursiveResize=0;outlineConnect=0;portConstraint=eastwest;newEdgeStyle={&quot;curved&quot;:0,&quot;rounded&quot;:0};" parent="1" vertex="1">
          <mxGeometry x="454" y="133" width="100" height="900" as="geometry" />
        </mxCell>
        <mxCell id="Hnz3JGqIeciN1Oyf4-zJ-26" value="" style="html=1;points=[[0,0,0,0,5],[0,1,0,0,-5],[1,0,0,0,5],[1,1,0,0,-5]];perimeter=orthogonalPerimeter;outlineConnect=0;targetShapes=umlLifeline;portConstraint=eastwest;newEdgeStyle={&quot;curved&quot;:0,&quot;rounded&quot;:0};" parent="Hnz3JGqIeciN1Oyf4-zJ-25" vertex="1">
          <mxGeometry x="45" y="184" width="10" height="16" as="geometry" />
        </mxCell>
        <mxCell id="Hnz3JGqIeciN1Oyf4-zJ-32" value="" style="html=1;points=[[0,0,0,0,5],[0,1,0,0,-5],[1,0,0,0,5],[1,1,0,0,-5]];perimeter=orthogonalPerimeter;outlineConnect=0;targetShapes=umlLifeline;portConstraint=eastwest;newEdgeStyle={&quot;curved&quot;:0,&quot;rounded&quot;:0};" parent="Hnz3JGqIeciN1Oyf4-zJ-25" vertex="1">
          <mxGeometry x="46" y="266" width="10" height="36" as="geometry" />
        </mxCell>
        <mxCell id="Hnz3JGqIeciN1Oyf4-zJ-27" value="" style="endArrow=none;endFill=0;endSize=12;html=1;rounded=0;startArrow=block;startFill=1;" parent="1" edge="1">
          <mxGeometry width="160" relative="1" as="geometry">
            <mxPoint x="165" y="160" as="sourcePoint" />
            <mxPoint x="450" y="160" as="targetPoint" />
          </mxGeometry>
        </mxCell>
        <mxCell id="Hnz3JGqIeciN1Oyf4-zJ-28" value="LoginController()" style="edgeLabel;html=1;align=center;verticalAlign=middle;resizable=0;points=[];" parent="Hnz3JGqIeciN1Oyf4-zJ-27" vertex="1" connectable="0">
          <mxGeometry x="-0.1237" y="1" relative="1" as="geometry">
            <mxPoint y="1" as="offset" />
          </mxGeometry>
        </mxCell>
        <mxCell id="Hnz3JGqIeciN1Oyf4-zJ-35" value="Exception()" style="html=1;verticalAlign=bottom;endArrow=block;curved=0;rounded=0;startArrow=none;startFill=0;endFill=1;exitX=-0.073;exitY=0.643;exitDx=0;exitDy=0;exitPerimeter=0;" parent="1" edge="1">
          <mxGeometry relative="1" as="geometry">
            <mxPoint x="614.97" y="408.15" as="sourcePoint" />
            <mxPoint x="513" y="408.15" as="targetPoint" />
          </mxGeometry>
        </mxCell>
        <mxCell id="Hnz3JGqIeciN1Oyf4-zJ-36" value=":Exception" style="shape=umlLifeline;perimeter=lifelinePerimeter;whiteSpace=wrap;html=1;container=1;dropTarget=0;collapsible=0;recursiveResize=0;outlineConnect=0;portConstraint=eastwest;newEdgeStyle={&quot;curved&quot;:0,&quot;rounded&quot;:0};" parent="1" vertex="1">
          <mxGeometry x="619" y="390" width="100" height="643" as="geometry" />
        </mxCell>
        <mxCell id="Hnz3JGqIeciN1Oyf4-zJ-37" value="" style="html=1;points=[[0,0,0,0,5],[0,1,0,0,-5],[1,0,0,0,5],[1,1,0,0,-5]];perimeter=orthogonalPerimeter;outlineConnect=0;targetShapes=umlLifeline;portConstraint=eastwest;newEdgeStyle={&quot;curved&quot;:0,&quot;rounded&quot;:0};" parent="Hnz3JGqIeciN1Oyf4-zJ-36" vertex="1">
          <mxGeometry x="45" y="57" width="10" height="36" as="geometry" />
        </mxCell>
        <mxCell id="Hnz3JGqIeciN1Oyf4-zJ-38" value=":MenuController" style="shape=umlLifeline;perimeter=lifelinePerimeter;whiteSpace=wrap;html=1;container=1;dropTarget=0;collapsible=0;recursiveResize=0;outlineConnect=0;portConstraint=eastwest;newEdgeStyle={&quot;curved&quot;:0,&quot;rounded&quot;:0};" parent="1" vertex="1">
          <mxGeometry x="780" y="356" width="100" height="690" as="geometry" />
        </mxCell>
        <mxCell id="YN0ZQsqefChDbZpPccXX-1" value="" style="html=1;points=[[0,0,0,0,5],[0,1,0,0,-5],[1,0,0,0,5],[1,1,0,0,-5]];perimeter=orthogonalPerimeter;outlineConnect=0;targetShapes=umlLifeline;portConstraint=eastwest;newEdgeStyle={&quot;curved&quot;:0,&quot;rounded&quot;:0};" parent="Hnz3JGqIeciN1Oyf4-zJ-38" vertex="1">
          <mxGeometry x="45" y="69" width="10" height="291" as="geometry" />
        </mxCell>
        <mxCell id="YN0ZQsqefChDbZpPccXX-21" value="" style="html=1;points=[[0,0,0,0,5],[0,1,0,0,-5],[1,0,0,0,5],[1,1,0,0,-5]];perimeter=orthogonalPerimeter;outlineConnect=0;targetShapes=umlLifeline;portConstraint=eastwest;newEdgeStyle={&quot;curved&quot;:0,&quot;rounded&quot;:0};" parent="Hnz3JGqIeciN1Oyf4-zJ-38" vertex="1">
          <mxGeometry x="52" y="319" width="10" height="30" as="geometry" />
        </mxCell>
        <mxCell id="Hnz3JGqIeciN1Oyf4-zJ-39" value="navigateToMenu()" style="html=1;verticalAlign=bottom;endArrow=block;curved=0;rounded=0;entryX=1;entryY=0;entryDx=0;entryDy=5;startArrow=none;startFill=0;endFill=1;jumpSize=6;" parent="1" edge="1">
          <mxGeometry relative="1" as="geometry">
            <mxPoint x="780" y="372" as="sourcePoint" />
            <mxPoint x="172" y="372" as="targetPoint" />
          </mxGeometry>
        </mxCell>
        <mxCell id="Hnz3JGqIeciN1Oyf4-zJ-40" value="[else]" style="text;html=1;align=center;verticalAlign=middle;resizable=0;points=[];autosize=1;strokeColor=none;fillColor=none;" parent="1" vertex="1">
          <mxGeometry x="75" y="384" width="50" height="30" as="geometry" />
        </mxCell>
        <mxCell id="Hnz3JGqIeciN1Oyf4-zJ-41" value="[successful&lt;br&gt;login]" style="text;html=1;align=center;verticalAlign=middle;resizable=0;points=[];autosize=1;strokeColor=none;fillColor=none;" parent="1" vertex="1">
          <mxGeometry x="65" y="335" width="80" height="40" as="geometry" />
        </mxCell>
        <mxCell id="Hnz3JGqIeciN1Oyf4-zJ-44" value="showErrorMessage(Exception)" style="html=1;verticalAlign=bottom;endArrow=block;curved=0;rounded=0;entryX=1;entryY=0;entryDx=0;entryDy=5;startArrow=none;startFill=0;endFill=1;" parent="1" edge="1">
          <mxGeometry relative="1" as="geometry">
            <mxPoint x="350" y="473" as="sourcePoint" />
            <mxPoint x="168" y="473" as="targetPoint" />
          </mxGeometry>
        </mxCell>
        <mxCell id="YN0ZQsqefChDbZpPccXX-2" value=":MenuView" style="shape=umlLifeline;perimeter=lifelinePerimeter;whiteSpace=wrap;html=1;container=1;dropTarget=0;collapsible=0;recursiveResize=0;outlineConnect=0;portConstraint=eastwest;newEdgeStyle={&quot;curved&quot;:0,&quot;rounded&quot;:0};" parent="1" vertex="1">
          <mxGeometry x="962" y="400" width="100" height="690" as="geometry" />
        </mxCell>
        <mxCell id="YN0ZQsqefChDbZpPccXX-3" value="" style="html=1;points=[[0,0,0,0,5],[0,1,0,0,-5],[1,0,0,0,5],[1,1,0,0,-5]];perimeter=orthogonalPerimeter;outlineConnect=0;targetShapes=umlLifeline;portConstraint=eastwest;newEdgeStyle={&quot;curved&quot;:0,&quot;rounded&quot;:0};" parent="YN0ZQsqefChDbZpPccXX-2" vertex="1">
          <mxGeometry x="46" y="100" width="10" height="70" as="geometry" />
        </mxCell>
        <mxCell id="YN0ZQsqefChDbZpPccXX-5" value="MenuController()" style="html=1;verticalAlign=bottom;endArrow=none;curved=0;rounded=0;startArrow=block;startFill=1;endFill=0;" parent="1" edge="1">
          <mxGeometry relative="1" as="geometry">
            <mxPoint x="950" y="428" as="sourcePoint" />
            <mxPoint x="840" y="428" as="targetPoint" />
          </mxGeometry>
        </mxCell>
        <mxCell id="YN0ZQsqefChDbZpPccXX-9" value="" style="html=1;points=[[0,0,0,0,5],[0,1,0,0,-5],[1,0,0,0,5],[1,1,0,0,-5]];perimeter=orthogonalPerimeter;outlineConnect=0;targetShapes=umlLifeline;portConstraint=eastwest;newEdgeStyle={&quot;curved&quot;:0,&quot;rounded&quot;:0};" parent="1" vertex="1">
          <mxGeometry x="830" y="470" width="10" height="170" as="geometry" />
        </mxCell>
        <mxCell id="YN0ZQsqefChDbZpPccXX-10" value="handleMenu()" style="html=1;align=left;spacingLeft=2;endArrow=block;rounded=0;edgeStyle=orthogonalEdgeStyle;curved=0;rounded=0;" parent="1" target="YN0ZQsqefChDbZpPccXX-9" edge="1">
          <mxGeometry relative="1" as="geometry">
            <mxPoint x="835" y="450" as="sourcePoint" />
            <Array as="points">
              <mxPoint x="865" y="480" />
            </Array>
          </mxGeometry>
        </mxCell>
        <mxCell id="YN0ZQsqefChDbZpPccXX-15" value=":SessionController" style="shape=umlLifeline;perimeter=lifelinePerimeter;whiteSpace=wrap;html=1;container=1;dropTarget=0;collapsible=0;recursiveResize=0;outlineConnect=0;portConstraint=eastwest;newEdgeStyle={&quot;curved&quot;:0,&quot;rounded&quot;:0};" parent="1" vertex="1">
          <mxGeometry x="1732" y="320" width="97" height="740" as="geometry" />
        </mxCell>
        <mxCell id="YN0ZQsqefChDbZpPccXX-29" value="" style="html=1;points=[[0,0,0,0,5],[0,1,0,0,-5],[1,0,0,0,5],[1,1,0,0,-5]];perimeter=orthogonalPerimeter;outlineConnect=0;targetShapes=umlLifeline;portConstraint=eastwest;newEdgeStyle={&quot;curved&quot;:0,&quot;rounded&quot;:0};" parent="YN0ZQsqefChDbZpPccXX-15" vertex="1">
          <mxGeometry x="43.5" y="64" width="10" height="80" as="geometry" />
        </mxCell>
        <mxCell id="YN0ZQsqefChDbZpPccXX-25" value=":Menu" style="shape=umlLifeline;perimeter=lifelinePerimeter;whiteSpace=wrap;html=1;container=1;dropTarget=0;collapsible=0;recursiveResize=0;outlineConnect=0;portConstraint=eastwest;newEdgeStyle={&quot;curved&quot;:0,&quot;rounded&quot;:0};" parent="1" vertex="1">
          <mxGeometry x="1100" y="590" width="100" height="480" as="geometry" />
        </mxCell>
        <mxCell id="YN0ZQsqefChDbZpPccXX-27" value="" style="html=1;points=[[0,0,0,0,5],[0,1,0,0,-5],[1,0,0,0,5],[1,1,0,0,-5]];perimeter=orthogonalPerimeter;outlineConnect=0;targetShapes=umlLifeline;portConstraint=eastwest;newEdgeStyle={&quot;curved&quot;:0,&quot;rounded&quot;:0};" parent="YN0ZQsqefChDbZpPccXX-25" vertex="1">
          <mxGeometry x="45" y="71" width="10" height="219" as="geometry" />
        </mxCell>
        <mxCell id="YN0ZQsqefChDbZpPccXX-26" value="return Menu" style="html=1;verticalAlign=bottom;endArrow=block;dashed=1;endSize=8;curved=0;rounded=0;endFill=1;" parent="1" edge="1">
          <mxGeometry relative="1" as="geometry">
            <mxPoint x="1100" y="618" as="sourcePoint" />
            <mxPoint x="850" y="618" as="targetPoint" />
          </mxGeometry>
        </mxCell>
        <mxCell id="l2-pCrX3TVzEVfKaEOEA-1" value="getUsernameInput():String" style="html=1;align=left;spacingLeft=2;endArrow=block;rounded=0;edgeStyle=orthogonalEdgeStyle;curved=0;rounded=0;" parent="1" target="Hnz3JGqIeciN1Oyf4-zJ-21" edge="1">
          <mxGeometry relative="1" as="geometry">
            <mxPoint x="168" y="232" as="sourcePoint" />
            <Array as="points">
              <mxPoint x="168" y="227" />
              <mxPoint x="199" y="227" />
              <mxPoint x="199" y="247" />
            </Array>
            <mxPoint x="174" y="247.0588235294117" as="targetPoint" />
          </mxGeometry>
        </mxCell>
        <mxCell id="l2-pCrX3TVzEVfKaEOEA-2" value="getPasswordInput():String" style="html=1;align=left;spacingLeft=2;endArrow=block;rounded=0;edgeStyle=orthogonalEdgeStyle;curved=0;rounded=0;" parent="1" target="Hnz3JGqIeciN1Oyf4-zJ-21" edge="1">
          <mxGeometry relative="1" as="geometry">
            <mxPoint x="168" y="283" as="sourcePoint" />
            <Array as="points">
              <mxPoint x="168" y="278" />
              <mxPoint x="199" y="278" />
              <mxPoint x="199" y="298" />
            </Array>
            <mxPoint x="174" y="298.0588235294117" as="targetPoint" />
          </mxGeometry>
        </mxCell>
        <mxCell id="l2-pCrX3TVzEVfKaEOEA-3" value=":Main" style="shape=umlLifeline;perimeter=lifelinePerimeter;whiteSpace=wrap;html=1;container=1;dropTarget=0;collapsible=0;recursiveResize=0;outlineConnect=0;portConstraint=eastwest;newEdgeStyle={&quot;curved&quot;:0,&quot;rounded&quot;:0};" parent="1" vertex="1">
          <mxGeometry x="-50" y="67" width="100" height="973" as="geometry" />
        </mxCell>
        <mxCell id="l2-pCrX3TVzEVfKaEOEA-7" value="" style="html=1;points=[[0,0,0,0,5],[0,1,0,0,-5],[1,0,0,0,5],[1,1,0,0,-5]];perimeter=orthogonalPerimeter;outlineConnect=0;targetShapes=umlLifeline;portConstraint=eastwest;newEdgeStyle={&quot;curved&quot;:0,&quot;rounded&quot;:0};" parent="l2-pCrX3TVzEVfKaEOEA-3" vertex="1">
          <mxGeometry x="45" y="58" width="10" height="722" as="geometry" />
        </mxCell>
        <mxCell id="l2-pCrX3TVzEVfKaEOEA-6" value="&lt;h1&gt;&lt;font style=&quot;font-size: 21px;&quot;&gt;Domain Layer&lt;/font&gt;&lt;/h1&gt;" style="text;html=1;strokeColor=#d79b00;fillColor=#ffe6cc;align=center;verticalAlign=middle;whiteSpace=wrap;rounded=0;" parent="1" vertex="1">
          <mxGeometry x="1590" y="36" width="190" height="60" as="geometry" />
        </mxCell>
        <mxCell id="l2-pCrX3TVzEVfKaEOEA-8" value="Here you need to&amp;nbsp;&lt;br style=&quot;font-size: 10px;&quot;&gt;consider every Menu for both students and advisors&lt;br&gt;ex: Course Registration Menu, Transcript etc for students.&amp;nbsp;&lt;br&gt;You can find them in the Menu interface" style="text;align=center;fontStyle=1;verticalAlign=middle;spacingLeft=3;spacingRight=3;strokeColor=#6c8ebf;rotatable=0;points=[[0,0.5],[1,0.5]];portConstraint=eastwest;html=1;fontSize=10;fillColor=#dae8fc;" parent="1" vertex="1">
          <mxGeometry x="1062" y="520" width="240" height="51" as="geometry" />
        </mxCell>
        <mxCell id="l2-pCrX3TVzEVfKaEOEA-10" value=":User" style="shape=umlLifeline;perimeter=lifelinePerimeter;whiteSpace=wrap;html=1;container=1;dropTarget=0;collapsible=0;recursiveResize=0;outlineConnect=0;portConstraint=eastwest;newEdgeStyle={&quot;curved&quot;:0,&quot;rounded&quot;:0};" parent="1" vertex="1">
          <mxGeometry x="1310" y="320" width="97" height="740" as="geometry" />
        </mxCell>
        <mxCell id="l2-pCrX3TVzEVfKaEOEA-11" value="" style="html=1;points=[[0,0,0,0,5],[0,1,0,0,-5],[1,0,0,0,5],[1,1,0,0,-5]];perimeter=orthogonalPerimeter;outlineConnect=0;targetShapes=umlLifeline;portConstraint=eastwest;newEdgeStyle={&quot;curved&quot;:0,&quot;rounded&quot;:0};" parent="l2-pCrX3TVzEVfKaEOEA-10" vertex="1">
          <mxGeometry x="43.5" y="64" width="10" height="80" as="geometry" />
        </mxCell>
        <mxCell id="l2-pCrX3TVzEVfKaEOEA-13" value="setCurrentUser(User)" style="html=1;verticalAlign=bottom;endArrow=block;curved=0;rounded=0;startArrow=none;startFill=0;endFill=1;fillColor=#ffe6cc;strokeColor=#000000;" parent="1" edge="1">
          <mxGeometry relative="1" as="geometry">
            <mxPoint x="1726" y="339" as="sourcePoint" />
            <mxPoint x="1416" y="339" as="targetPoint" />
          </mxGeometry>
        </mxCell>
        <mxCell id="l2-pCrX3TVzEVfKaEOEA-14" value="Here you need to consider the Student and Advisor&amp;nbsp;&lt;br&gt;Objects" style="text;align=center;fontStyle=1;verticalAlign=middle;spacingLeft=3;spacingRight=3;strokeColor=#6c8ebf;rotatable=0;points=[[0,0.5],[1,0.5]];portConstraint=eastwest;html=1;fontSize=10;fillColor=#dae8fc;" parent="1" vertex="1">
          <mxGeometry x="1230" y="250" width="248.5" height="46" as="geometry" />
        </mxCell>
        <mxCell id="l2-pCrX3TVzEVfKaEOEA-15" value="&lt;h1&gt;&lt;font style=&quot;font-size: 21px;&quot;&gt;User Interface Layer&lt;/font&gt;&lt;/h1&gt;" style="text;html=1;strokeColor=#d79b00;fillColor=#ffe6cc;align=center;verticalAlign=middle;whiteSpace=wrap;rounded=0;" parent="1" vertex="1">
          <mxGeometry x="600" y="30" width="190" height="60" as="geometry" />
        </mxCell>
        <mxCell id="p9a0Ueq9XjxGkwlSQC-X-2" value=":CourseApprovalController" style="shape=umlLifeline;perimeter=lifelinePerimeter;whiteSpace=wrap;html=1;container=1;dropTarget=0;collapsible=0;recursiveResize=0;outlineConnect=0;portConstraint=eastwest;newEdgeStyle={&quot;curved&quot;:0,&quot;rounded&quot;:0};" vertex="1" parent="1">
          <mxGeometry x="2028" y="375" width="97" height="740" as="geometry" />
        </mxCell>
        <mxCell id="p9a0Ueq9XjxGkwlSQC-X-3" value="" style="html=1;points=[[0,0,0,0,5],[0,1,0,0,-5],[1,0,0,0,5],[1,1,0,0,-5]];perimeter=orthogonalPerimeter;outlineConnect=0;targetShapes=umlLifeline;portConstraint=eastwest;newEdgeStyle={&quot;curved&quot;:0,&quot;rounded&quot;:0};" vertex="1" parent="p9a0Ueq9XjxGkwlSQC-X-2">
          <mxGeometry x="43.5" y="64" width="10" height="296" as="geometry" />
        </mxCell>
        <mxCell id="p9a0Ueq9XjxGkwlSQC-X-7" value=":CourseApprovalControllerView" style="shape=umlLifeline;perimeter=lifelinePerimeter;whiteSpace=wrap;html=1;container=1;dropTarget=0;collapsible=0;recursiveResize=0;outlineConnect=0;portConstraint=eastwest;newEdgeStyle={&quot;curved&quot;:0,&quot;rounded&quot;:0};" vertex="1" parent="1">
          <mxGeometry x="2290" y="360" width="97" height="740" as="geometry" />
        </mxCell>
        <mxCell id="p9a0Ueq9XjxGkwlSQC-X-9" style="edgeStyle=orthogonalEdgeStyle;rounded=0;orthogonalLoop=1;jettySize=auto;html=1;curved=0;exitX=1;exitY=0;exitDx=0;exitDy=5;exitPerimeter=0;" edge="1" parent="1" source="p9a0Ueq9XjxGkwlSQC-X-3" target="p9a0Ueq9XjxGkwlSQC-X-7">
          <mxGeometry relative="1" as="geometry">
            <mxPoint x="2270" y="420" as="targetPoint" />
            <Array as="points">
              <mxPoint x="2290" y="444" />
              <mxPoint x="2290" y="444" />
            </Array>
          </mxGeometry>
        </mxCell>
        <mxCell id="p9a0Ueq9XjxGkwlSQC-X-10" value="CourseApprovalController()" style="text;html=1;align=center;verticalAlign=middle;resizable=0;points=[];autosize=1;strokeColor=none;fillColor=none;" vertex="1" parent="1">
          <mxGeometry x="1925.5" y="426" width="170" height="30" as="geometry" />
        </mxCell>
        <mxCell id="p9a0Ueq9XjxGkwlSQC-X-20" style="edgeStyle=orthogonalEdgeStyle;rounded=0;orthogonalLoop=1;jettySize=auto;html=1;exitX=0.75;exitY=1;exitDx=0;exitDy=0;entryX=0.53;entryY=0.096;entryDx=0;entryDy=0;entryPerimeter=0;" edge="1" parent="1" source="p9a0Ueq9XjxGkwlSQC-X-11" target="Hnz3JGqIeciN1Oyf4-zJ-38">
          <mxGeometry relative="1" as="geometry">
            <mxPoint x="910" y="410" as="targetPoint" />
            <Array as="points">
              <mxPoint x="1990" y="730" />
              <mxPoint x="1990" y="370" />
              <mxPoint x="921" y="370" />
              <mxPoint x="921" y="400" />
              <mxPoint x="840" y="400" />
              <mxPoint x="840" y="410" />
              <mxPoint x="833" y="410" />
            </Array>
          </mxGeometry>
        </mxCell>
        <mxCell id="p9a0Ueq9XjxGkwlSQC-X-11" value="" style="rounded=0;whiteSpace=wrap;html=1;" vertex="1" parent="1">
          <mxGeometry x="2080" y="480" width="10" height="250" as="geometry" />
        </mxCell>
        <mxCell id="p9a0Ueq9XjxGkwlSQC-X-18" value="handleApprovalController()" style="text;html=1;align=center;verticalAlign=middle;resizable=0;points=[];autosize=1;strokeColor=none;fillColor=none;" vertex="1" parent="1">
          <mxGeometry x="2070" y="458" width="170" height="30" as="geometry" />
        </mxCell>
        <mxCell id="p9a0Ueq9XjxGkwlSQC-X-21" value="navigateToMenu()" style="text;html=1;align=center;verticalAlign=middle;resizable=0;points=[];autosize=1;strokeColor=none;fillColor=none;" vertex="1" parent="1">
          <mxGeometry x="2080" y="698" width="120" height="30" as="geometry" />
        </mxCell>
        <mxCell id="p9a0Ueq9XjxGkwlSQC-X-23" value="fetchPendingEnrollments()" style="text;html=1;align=center;verticalAlign=middle;resizable=0;points=[];autosize=1;strokeColor=none;fillColor=none;" vertex="1" parent="1">
          <mxGeometry x="2075" y="510" width="160" height="30" as="geometry" />
        </mxCell>
        <mxCell id="p9a0Ueq9XjxGkwlSQC-X-24" value="getUserSelection()" style="text;html=1;align=center;verticalAlign=middle;resizable=0;points=[];autosize=1;strokeColor=none;fillColor=none;" vertex="1" parent="1">
          <mxGeometry x="2075" y="541" width="120" height="30" as="geometry" />
        </mxCell>
        <mxCell id="p9a0Ueq9XjxGkwlSQC-X-25" value=":ApprovalCoursesSelectedController" style="shape=umlLifeline;perimeter=lifelinePerimeter;whiteSpace=wrap;html=1;container=1;dropTarget=0;collapsible=0;recursiveResize=0;outlineConnect=0;portConstraint=eastwest;newEdgeStyle={&quot;curved&quot;:0,&quot;rounded&quot;:0};" vertex="1" parent="1">
          <mxGeometry x="2490" y="360" width="97" height="740" as="geometry" />
        </mxCell>
        <mxCell id="p9a0Ueq9XjxGkwlSQC-X-26" value="" style="html=1;points=[[0,0,0,0,5],[0,1,0,0,-5],[1,0,0,0,5],[1,1,0,0,-5]];perimeter=orthogonalPerimeter;outlineConnect=0;targetShapes=umlLifeline;portConstraint=eastwest;newEdgeStyle={&quot;curved&quot;:0,&quot;rounded&quot;:0};" vertex="1" parent="p9a0Ueq9XjxGkwlSQC-X-25">
          <mxGeometry x="43.5" y="64" width="10" height="246" as="geometry" />
        </mxCell>
        <mxCell id="p9a0Ueq9XjxGkwlSQC-X-30" value="" style="html=1;points=[[0,0,0,0,5],[0,1,0,0,-5],[1,0,0,0,5],[1,1,0,0,-5]];perimeter=orthogonalPerimeter;outlineConnect=0;targetShapes=umlLifeline;portConstraint=eastwest;newEdgeStyle={&quot;curved&quot;:0,&quot;rounded&quot;:0};" vertex="1" parent="p9a0Ueq9XjxGkwlSQC-X-25">
          <mxGeometry x="50" y="110" width="10" height="196" as="geometry" />
        </mxCell>
        <mxCell id="p9a0Ueq9XjxGkwlSQC-X-28" value=":ApprovalCoursesSelectedView" style="shape=umlLifeline;perimeter=lifelinePerimeter;whiteSpace=wrap;html=1;container=1;dropTarget=0;collapsible=0;recursiveResize=0;outlineConnect=0;portConstraint=eastwest;newEdgeStyle={&quot;curved&quot;:0,&quot;rounded&quot;:0};" vertex="1" parent="1">
          <mxGeometry x="2750" y="360" width="97" height="740" as="geometry" />
        </mxCell>
        <mxCell id="p9a0Ueq9XjxGkwlSQC-X-31" style="edgeStyle=orthogonalEdgeStyle;rounded=0;orthogonalLoop=1;jettySize=auto;html=1;curved=0;exitX=1;exitY=0;exitDx=0;exitDy=5;exitPerimeter=0;entryX=0.526;entryY=0.092;entryDx=0;entryDy=0;entryPerimeter=0;" edge="1" parent="1" source="p9a0Ueq9XjxGkwlSQC-X-26" target="p9a0Ueq9XjxGkwlSQC-X-28">
          <mxGeometry relative="1" as="geometry" />
        </mxCell>
        <mxCell id="p9a0Ueq9XjxGkwlSQC-X-32" value="ApprovalCoursesSelectedController(CourseEnrollment)" style="text;html=1;align=center;verticalAlign=middle;resizable=0;points=[];autosize=1;strokeColor=none;fillColor=none;" vertex="1" parent="1">
          <mxGeometry x="2540" y="408" width="320" height="30" as="geometry" />
        </mxCell>
        <mxCell id="p9a0Ueq9XjxGkwlSQC-X-35" value="" style="endArrow=classic;html=1;rounded=0;entryX=1;entryY=0.08;entryDx=0;entryDy=0;entryPerimeter=0;" edge="1" parent="1">
          <mxGeometry width="50" height="50" relative="1" as="geometry">
            <mxPoint x="2076" y="460" as="sourcePoint" />
            <mxPoint x="2090" y="500" as="targetPoint" />
            <Array as="points">
              <mxPoint x="2130" y="460" />
              <mxPoint x="2130" y="490" />
            </Array>
          </mxGeometry>
        </mxCell>
        <mxCell id="p9a0Ueq9XjxGkwlSQC-X-36" value="" style="endArrow=classic;html=1;rounded=0;entryX=1;entryY=0.08;entryDx=0;entryDy=0;entryPerimeter=0;" edge="1" parent="1">
          <mxGeometry width="50" height="50" relative="1" as="geometry">
            <mxPoint x="2540" y="440" as="sourcePoint" />
            <mxPoint x="2554" y="480" as="targetPoint" />
            <Array as="points">
              <mxPoint x="2594" y="440" />
              <mxPoint x="2594" y="470" />
            </Array>
          </mxGeometry>
        </mxCell>
        <mxCell id="p9a0Ueq9XjxGkwlSQC-X-37" value="handleCourseApprovalController():" style="text;html=1;align=center;verticalAlign=middle;resizable=0;points=[];autosize=1;strokeColor=none;fillColor=none;" vertex="1" parent="1">
          <mxGeometry x="2485" y="438" width="210" height="30" as="geometry" />
        </mxCell>
        <mxCell id="p9a0Ueq9XjxGkwlSQC-X-38" value="" style="rounded=0;whiteSpace=wrap;html=1;" vertex="1" parent="1">
          <mxGeometry x="2793.5" y="520" width="10" height="40" as="geometry" />
        </mxCell>
        <mxCell id="p9a0Ueq9XjxGkwlSQC-X-40" value="" style="endArrow=classic;html=1;rounded=0;" edge="1" parent="1" source="p9a0Ueq9XjxGkwlSQC-X-30" target="p9a0Ueq9XjxGkwlSQC-X-28">
          <mxGeometry width="50" height="50" relative="1" as="geometry">
            <mxPoint x="2590" y="510" as="sourcePoint" />
            <mxPoint x="2740" y="530" as="targetPoint" />
            <Array as="points">
              <mxPoint x="2690" y="520" />
            </Array>
          </mxGeometry>
        </mxCell>
        <mxCell id="p9a0Ueq9XjxGkwlSQC-X-41" value="showSelectedCourses(ArrayList&amp;lt;Course&amp;gt;):" style="text;html=1;align=center;verticalAlign=middle;resizable=0;points=[];autosize=1;strokeColor=none;fillColor=none;" vertex="1" parent="1">
          <mxGeometry x="2543.5" y="498" width="250" height="30" as="geometry" />
        </mxCell>
        <mxCell id="p9a0Ueq9XjxGkwlSQC-X-43" value="getUserSelection()" style="text;html=1;align=center;verticalAlign=middle;resizable=0;points=[];autosize=1;strokeColor=none;fillColor=none;" vertex="1" parent="1">
          <mxGeometry x="2543.5" y="543" width="120" height="30" as="geometry" />
        </mxCell>
        <mxCell id="p9a0Ueq9XjxGkwlSQC-X-48" value="updateTranscript()" style="text;html=1;align=center;verticalAlign=middle;resizable=0;points=[];autosize=1;strokeColor=none;fillColor=none;" vertex="1" parent="1">
          <mxGeometry x="2543.5" y="600" width="120" height="30" as="geometry" />
        </mxCell>
        <mxCell id="p9a0Ueq9XjxGkwlSQC-X-49" value="updateCourseEnrollment(int)" style="text;html=1;align=center;verticalAlign=middle;resizable=0;points=[];autosize=1;strokeColor=none;fillColor=none;" vertex="1" parent="1">
          <mxGeometry x="2533.5" y="580" width="180" height="30" as="geometry" />
        </mxCell>
        <mxCell id="p9a0Ueq9XjxGkwlSQC-X-50" style="edgeStyle=orthogonalEdgeStyle;rounded=0;orthogonalLoop=1;jettySize=auto;html=1;curved=0;exitX=1;exitY=1;exitDx=0;exitDy=-5;exitPerimeter=0;" edge="1" parent="1" source="p9a0Ueq9XjxGkwlSQC-X-30" target="p9a0Ueq9XjxGkwlSQC-X-28">
          <mxGeometry relative="1" as="geometry" />
        </mxCell>
        <mxCell id="p9a0Ueq9XjxGkwlSQC-X-51" value="showSuccessMessage()" style="text;html=1;align=center;verticalAlign=middle;resizable=0;points=[];autosize=1;strokeColor=none;fillColor=none;" vertex="1" parent="1">
          <mxGeometry x="2570" y="668" width="150" height="30" as="geometry" />
        </mxCell>
        <mxCell id="p9a0Ueq9XjxGkwlSQC-X-54" value="" style="rounded=0;whiteSpace=wrap;html=1;" vertex="1" parent="1">
          <mxGeometry x="2793.5" y="725" width="10" height="40" as="geometry" />
        </mxCell>
        <mxCell id="p9a0Ueq9XjxGkwlSQC-X-55" value=":AdvisorStudentListController" style="shape=umlLifeline;perimeter=lifelinePerimeter;whiteSpace=wrap;html=1;container=1;dropTarget=0;collapsible=0;recursiveResize=0;outlineConnect=0;portConstraint=eastwest;newEdgeStyle={&quot;curved&quot;:0,&quot;rounded&quot;:0};" vertex="1" parent="1">
          <mxGeometry x="3020" y="356" width="97" height="740" as="geometry" />
        </mxCell>
        <mxCell id="p9a0Ueq9XjxGkwlSQC-X-59" style="edgeStyle=orthogonalEdgeStyle;rounded=0;orthogonalLoop=1;jettySize=auto;html=1;exitX=1;exitY=0;exitDx=0;exitDy=0;" edge="1" parent="1" source="p9a0Ueq9XjxGkwlSQC-X-56" target="p9a0Ueq9XjxGkwlSQC-X-58">
          <mxGeometry relative="1" as="geometry">
            <Array as="points">
              <mxPoint x="3157" y="428" />
              <mxPoint x="3157" y="430" />
            </Array>
          </mxGeometry>
        </mxCell>
        <mxCell id="p9a0Ueq9XjxGkwlSQC-X-56" value="" style="rounded=0;whiteSpace=wrap;html=1;" vertex="1" parent="1">
          <mxGeometry x="3063.5" y="428" width="10" height="182" as="geometry" />
        </mxCell>
        <mxCell id="p9a0Ueq9XjxGkwlSQC-X-58" value=":AdvisorStudentListView" style="shape=umlLifeline;perimeter=lifelinePerimeter;whiteSpace=wrap;html=1;container=1;dropTarget=0;collapsible=0;recursiveResize=0;outlineConnect=0;portConstraint=eastwest;newEdgeStyle={&quot;curved&quot;:0,&quot;rounded&quot;:0};" vertex="1" parent="1">
          <mxGeometry x="3240" y="356" width="97" height="740" as="geometry" />
        </mxCell>
        <mxCell id="p9a0Ueq9XjxGkwlSQC-X-60" value="AdvisorStudentListController()" style="text;html=1;align=center;verticalAlign=middle;resizable=0;points=[];autosize=1;strokeColor=none;fillColor=none;" vertex="1" parent="1">
          <mxGeometry x="3073.5" y="400" width="180" height="30" as="geometry" />
        </mxCell>
        <mxCell id="p9a0Ueq9XjxGkwlSQC-X-61" value="" style="rounded=0;whiteSpace=wrap;html=1;" vertex="1" parent="1">
          <mxGeometry x="3073.5" y="498" width="10" height="110" as="geometry" />
        </mxCell>
        <mxCell id="p9a0Ueq9XjxGkwlSQC-X-62" value="" style="endArrow=classic;html=1;rounded=0;entryX=1;entryY=0.25;entryDx=0;entryDy=0;" edge="1" parent="1" source="p9a0Ueq9XjxGkwlSQC-X-55" target="p9a0Ueq9XjxGkwlSQC-X-61">
          <mxGeometry width="50" height="50" relative="1" as="geometry">
            <mxPoint x="3150" y="470" as="sourcePoint" />
            <mxPoint x="3120" y="530" as="targetPoint" />
            <Array as="points">
              <mxPoint x="3100" y="490" />
            </Array>
          </mxGeometry>
        </mxCell>
        <mxCell id="p9a0Ueq9XjxGkwlSQC-X-63" value="getUserInput():" style="text;html=1;align=center;verticalAlign=middle;resizable=0;points=[];autosize=1;strokeColor=none;fillColor=none;" vertex="1" parent="1">
          <mxGeometry x="3068.5" y="440" width="100" height="30" as="geometry" />
        </mxCell>
        <mxCell id="p9a0Ueq9XjxGkwlSQC-X-64" value="handleStudentList()" style="text;html=1;align=center;verticalAlign=middle;resizable=0;points=[];autosize=1;strokeColor=none;fillColor=none;" vertex="1" parent="1">
          <mxGeometry x="3038.5" y="470" width="130" height="30" as="geometry" />
        </mxCell>
        <mxCell id="p9a0Ueq9XjxGkwlSQC-X-65" style="edgeStyle=orthogonalEdgeStyle;rounded=0;orthogonalLoop=1;jettySize=auto;html=1;exitX=1;exitY=0.5;exitDx=0;exitDy=0;entryX=0.536;entryY=0.266;entryDx=0;entryDy=0;entryPerimeter=0;" edge="1" parent="1" source="p9a0Ueq9XjxGkwlSQC-X-61" target="p9a0Ueq9XjxGkwlSQC-X-58">
          <mxGeometry relative="1" as="geometry" />
        </mxCell>
        <mxCell id="p9a0Ueq9XjxGkwlSQC-X-66" value="showStudentList(ArrayList&amp;lt;Student&amp;gt;)" style="text;html=1;align=center;verticalAlign=middle;resizable=0;points=[];autosize=1;strokeColor=none;fillColor=none;" vertex="1" parent="1">
          <mxGeometry x="3068.5" y="530.5" width="220" height="30" as="geometry" />
        </mxCell>
        <mxCell id="p9a0Ueq9XjxGkwlSQC-X-68" style="edgeStyle=orthogonalEdgeStyle;rounded=0;orthogonalLoop=1;jettySize=auto;html=1;exitX=0;exitY=0.75;exitDx=0;exitDy=0;" edge="1" parent="1" source="p9a0Ueq9XjxGkwlSQC-X-67" target="Hnz3JGqIeciN1Oyf4-zJ-38">
          <mxGeometry relative="1" as="geometry">
            <Array as="points">
              <mxPoint x="2534" y="880" />
              <mxPoint x="1707" y="880" />
              <mxPoint x="1707" y="410" />
            </Array>
          </mxGeometry>
        </mxCell>
        <mxCell id="p9a0Ueq9XjxGkwlSQC-X-67" value="" style="rounded=0;whiteSpace=wrap;html=1;" vertex="1" parent="1">
          <mxGeometry x="2533.5" y="790" width="10" height="40" as="geometry" />
        </mxCell>
        <mxCell id="p9a0Ueq9XjxGkwlSQC-X-69" value="navigateToMenu()" style="text;html=1;align=center;verticalAlign=middle;resizable=0;points=[];autosize=1;strokeColor=none;fillColor=none;" vertex="1" parent="1">
          <mxGeometry x="2420" y="850" width="120" height="30" as="geometry" />
        </mxCell>
        <mxCell id="p9a0Ueq9XjxGkwlSQC-X-70" value="navigateToApprovalCoursesSelected(CourseEnrollment)" style="text;html=1;align=center;verticalAlign=middle;resizable=0;points=[];autosize=1;strokeColor=none;fillColor=none;" vertex="1" parent="1">
          <mxGeometry x="2062" y="760" width="320" height="30" as="geometry" />
        </mxCell>
        <mxCell id="p9a0Ueq9XjxGkwlSQC-X-72" style="edgeStyle=orthogonalEdgeStyle;rounded=0;orthogonalLoop=1;jettySize=auto;html=1;exitX=1;exitY=0.25;exitDx=0;exitDy=0;" edge="1" parent="1" source="p9a0Ueq9XjxGkwlSQC-X-71" target="p9a0Ueq9XjxGkwlSQC-X-25">
          <mxGeometry relative="1" as="geometry">
            <Array as="points">
              <mxPoint x="2286" y="788" />
              <mxPoint x="2286" y="410" />
            </Array>
          </mxGeometry>
        </mxCell>
        <mxCell id="p9a0Ueq9XjxGkwlSQC-X-71" value="" style="rounded=0;whiteSpace=wrap;html=1;" vertex="1" parent="1">
          <mxGeometry x="2071.5" y="778" width="10" height="40" as="geometry" />
        </mxCell>
        <mxCell id="p9a0Ueq9XjxGkwlSQC-X-75" style="edgeStyle=orthogonalEdgeStyle;rounded=0;orthogonalLoop=1;jettySize=auto;html=1;" edge="1" parent="1" source="p9a0Ueq9XjxGkwlSQC-X-74">
          <mxGeometry relative="1" as="geometry">
            <mxPoint x="3181.008" y="731.0799999999999" as="sourcePoint" />
            <mxPoint x="670" y="408" as="targetPoint" />
            <Array as="points" />
          </mxGeometry>
        </mxCell>
        <mxCell id="p9a0Ueq9XjxGkwlSQC-X-77" value="" style="edgeStyle=orthogonalEdgeStyle;rounded=0;orthogonalLoop=1;jettySize=auto;html=1;" edge="1" parent="1" source="p9a0Ueq9XjxGkwlSQC-X-55" target="p9a0Ueq9XjxGkwlSQC-X-74">
          <mxGeometry relative="1" as="geometry">
            <mxPoint x="3068" y="770" as="sourcePoint" />
            <mxPoint x="670" y="408" as="targetPoint" />
            <Array as="points">
              <mxPoint x="1951" y="770" />
              <mxPoint x="1951" y="408" />
            </Array>
          </mxGeometry>
        </mxCell>
        <mxCell id="p9a0Ueq9XjxGkwlSQC-X-74" value="" style="rounded=0;whiteSpace=wrap;html=1;" vertex="1" parent="1">
          <mxGeometry x="3063.5" y="750" width="10" height="40" as="geometry" />
        </mxCell>
        <mxCell id="p9a0Ueq9XjxGkwlSQC-X-78" value="navigateToMenu()" style="text;html=1;align=center;verticalAlign=middle;resizable=0;points=[];autosize=1;strokeColor=none;fillColor=none;" vertex="1" parent="1">
          <mxGeometry x="2960" y="748" width="120" height="30" as="geometry" />
        </mxCell>
      </root>
    </mxGraphModel>
  </diagram>
  <diagram id="_W4MYrx1SeTTFw20Kr6i" name="Page-2">
    <mxGraphModel dx="840" dy="490" grid="1" gridSize="10" guides="1" tooltips="1" connect="1" arrows="1" fold="1" page="1" pageScale="1" pageWidth="850" pageHeight="1100" math="0" shadow="0">
      <root>
        <mxCell id="0" />
        <mxCell id="1" parent="0" />
        <mxCell id="BJnJg_g0kGkfMYtrY4SE-1" value="setCurrentUser(User)" style="html=1;verticalAlign=bottom;endArrow=none;curved=0;rounded=0;startArrow=block;startFill=1;endFill=0;fillColor=#ffe6cc;strokeColor=#000000;" parent="1" target="BJnJg_g0kGkfMYtrY4SE-9" edge="1">
          <mxGeometry relative="1" as="geometry">
            <mxPoint x="1310" y="340" as="sourcePoint" />
            <mxPoint x="511" y="340" as="targetPoint" />
          </mxGeometry>
        </mxCell>
        <mxCell id="BJnJg_g0kGkfMYtrY4SE-2" value="navigateToModule()" style="html=1;verticalAlign=bottom;endArrow=none;curved=0;rounded=0;entryX=1;entryY=0;entryDx=0;entryDy=5;startArrow=block;startFill=1;endFill=0;" parent="1" edge="1">
          <mxGeometry relative="1" as="geometry">
            <mxPoint x="1140" y="693" as="sourcePoint" />
            <mxPoint x="840" y="693" as="targetPoint" />
          </mxGeometry>
        </mxCell>
        <mxCell id="BJnJg_g0kGkfMYtrY4SE-3" value="showMenuList(ArrayList&amp;lt;String&amp;gt;)" style="html=1;verticalAlign=bottom;endArrow=block;curved=0;rounded=0;startArrow=none;startFill=0;endFill=1;exitX=0.475;exitY=0.158;exitDx=0;exitDy=0;exitPerimeter=0;" parent="1" source="BJnJg_g0kGkfMYtrY4SE-39" target="BJnJg_g0kGkfMYtrY4SE-42" edge="1">
          <mxGeometry x="-0.0141" y="-5" relative="1" as="geometry">
            <mxPoint x="980" y="509" as="sourcePoint" />
            <mxPoint x="853" y="507" as="targetPoint" />
            <mxPoint as="offset" />
          </mxGeometry>
        </mxCell>
        <mxCell id="BJnJg_g0kGkfMYtrY4SE-4" value="getMenuSelection():String" style="html=1;verticalAlign=bottom;endArrow=none;curved=0;rounded=0;entryX=1;entryY=0;entryDx=0;entryDy=5;startArrow=block;startFill=1;endFill=0;" parent="1" edge="1">
          <mxGeometry relative="1" as="geometry">
            <mxPoint x="1007" y="533" as="sourcePoint" />
            <mxPoint x="837" y="533" as="targetPoint" />
          </mxGeometry>
        </mxCell>
        <mxCell id="BJnJg_g0kGkfMYtrY4SE-5" value="" style="line;strokeWidth=2;fillColor=none;align=left;verticalAlign=middle;spacingTop=-1;spacingLeft=3;spacingRight=3;rotatable=0;labelPosition=right;points=[];portConstraint=eastwest;strokeColor=inherit;dashed=1;" parent="1" vertex="1">
          <mxGeometry x="70" y="383" width="670" height="8" as="geometry" />
        </mxCell>
        <mxCell id="BJnJg_g0kGkfMYtrY4SE-6" value="Exception(String)" style="html=1;verticalAlign=bottom;endArrow=block;curved=0;rounded=0;startArrow=none;startFill=0;endFill=1;entryX=1;entryY=0;entryDx=0;entryDy=5;entryPerimeter=0;" parent="1" edge="1">
          <mxGeometry relative="1" as="geometry">
            <mxPoint x="668.5" y="455.0000000000001" as="sourcePoint" />
            <mxPoint x="360" y="455.0000000000001" as="targetPoint" />
          </mxGeometry>
        </mxCell>
        <mxCell id="BJnJg_g0kGkfMYtrY4SE-7" value="alt" style="shape=umlFrame;whiteSpace=wrap;html=1;pointerEvents=0;" parent="1" vertex="1">
          <mxGeometry x="70" y="306" width="670" height="214" as="geometry" />
        </mxCell>
        <mxCell id="BJnJg_g0kGkfMYtrY4SE-8" value="checkLogin()" style="html=1;verticalAlign=bottom;endArrow=none;curved=0;rounded=0;startArrow=block;startFill=1;endFill=0;" parent="1" edge="1">
          <mxGeometry relative="1" as="geometry">
            <mxPoint x="503.5" y="324" as="sourcePoint" />
            <mxPoint x="170" y="324" as="targetPoint" />
          </mxGeometry>
        </mxCell>
        <mxCell id="BJnJg_g0kGkfMYtrY4SE-9" value=":LoginController" style="shape=umlLifeline;perimeter=lifelinePerimeter;whiteSpace=wrap;html=1;container=1;dropTarget=0;collapsible=0;recursiveResize=0;outlineConnect=0;portConstraint=eastwest;newEdgeStyle={&quot;curved&quot;:0,&quot;rounded&quot;:0};" parent="1" vertex="1">
          <mxGeometry x="107" y="67" width="100" height="933" as="geometry" />
        </mxCell>
        <mxCell id="BJnJg_g0kGkfMYtrY4SE-10" value="" style="html=1;points=[[0,0,0,0,5],[0,1,0,0,-5],[1,0,0,0,5],[1,1,0,0,-5]];perimeter=orthogonalPerimeter;outlineConnect=0;targetShapes=umlLifeline;portConstraint=eastwest;newEdgeStyle={&quot;curved&quot;:0,&quot;rounded&quot;:0};" parent="BJnJg_g0kGkfMYtrY4SE-9" vertex="1">
          <mxGeometry x="46" y="58" width="10" height="712" as="geometry" />
        </mxCell>
        <mxCell id="BJnJg_g0kGkfMYtrY4SE-11" value="&lt;font style=&quot;font-size: 10px;&quot;&gt;JsonManager()&lt;/font&gt;" style="html=1;verticalAlign=bottom;startArrow=oval;startFill=1;endArrow=block;startSize=8;curved=0;rounded=0;" parent="1" edge="1">
          <mxGeometry width="60" relative="1" as="geometry">
            <mxPoint x="20" y="100" as="sourcePoint" />
            <mxPoint x="104" y="100" as="targetPoint" />
          </mxGeometry>
        </mxCell>
        <mxCell id="BJnJg_g0kGkfMYtrY4SE-12" value=":LoginView" style="shape=umlLifeline;perimeter=lifelinePerimeter;whiteSpace=wrap;html=1;container=1;dropTarget=0;collapsible=0;recursiveResize=0;outlineConnect=0;portConstraint=eastwest;newEdgeStyle={&quot;curved&quot;:0,&quot;rounded&quot;:0};" parent="1" vertex="1">
          <mxGeometry x="304" y="108" width="100" height="900" as="geometry" />
        </mxCell>
        <mxCell id="BJnJg_g0kGkfMYtrY4SE-13" value="" style="html=1;points=[[0,0,0,0,5],[0,1,0,0,-5],[1,0,0,0,5],[1,1,0,0,-5]];perimeter=orthogonalPerimeter;outlineConnect=0;targetShapes=umlLifeline;portConstraint=eastwest;newEdgeStyle={&quot;curved&quot;:0,&quot;rounded&quot;:0};" parent="BJnJg_g0kGkfMYtrY4SE-12" vertex="1">
          <mxGeometry x="45" y="100" width="10" height="40" as="geometry" />
        </mxCell>
        <mxCell id="BJnJg_g0kGkfMYtrY4SE-14" value="" style="html=1;points=[[0,0,0,0,5],[0,1,0,0,-5],[1,0,0,0,5],[1,1,0,0,-5]];perimeter=orthogonalPerimeter;outlineConnect=0;targetShapes=umlLifeline;portConstraint=eastwest;newEdgeStyle={&quot;curved&quot;:0,&quot;rounded&quot;:0};" parent="BJnJg_g0kGkfMYtrY4SE-12" vertex="1">
          <mxGeometry x="46" y="153" width="10" height="40" as="geometry" />
        </mxCell>
        <mxCell id="BJnJg_g0kGkfMYtrY4SE-15" value="" style="html=1;points=[[0,0,0,0,5],[0,1,0,0,-5],[1,0,0,0,5],[1,1,0,0,-5]];perimeter=orthogonalPerimeter;outlineConnect=0;targetShapes=umlLifeline;portConstraint=eastwest;newEdgeStyle={&quot;curved&quot;:0,&quot;rounded&quot;:0};" parent="BJnJg_g0kGkfMYtrY4SE-12" vertex="1">
          <mxGeometry x="46" y="341" width="10" height="50" as="geometry" />
        </mxCell>
        <mxCell id="BJnJg_g0kGkfMYtrY4SE-16" value="" style="endArrow=blockThin;endFill=1;endSize=12;html=1;rounded=0;" parent="1" edge="1">
          <mxGeometry width="160" relative="1" as="geometry">
            <mxPoint x="166" y="133" as="sourcePoint" />
            <mxPoint x="300" y="133" as="targetPoint" />
          </mxGeometry>
        </mxCell>
        <mxCell id="BJnJg_g0kGkfMYtrY4SE-17" value="LoginController()" style="edgeLabel;html=1;align=center;verticalAlign=middle;resizable=0;points=[];" parent="BJnJg_g0kGkfMYtrY4SE-16" connectable="0" vertex="1">
          <mxGeometry x="-0.1237" y="1" relative="1" as="geometry">
            <mxPoint y="1" as="offset" />
          </mxGeometry>
        </mxCell>
        <mxCell id="BJnJg_g0kGkfMYtrY4SE-18" value="displayUsername()" style="html=1;verticalAlign=bottom;endArrow=none;curved=0;rounded=0;entryX=1;entryY=0;entryDx=0;entryDy=5;startArrow=block;startFill=1;endFill=0;" parent="1" edge="1">
          <mxGeometry relative="1" as="geometry">
            <mxPoint x="350" y="219" as="sourcePoint" />
            <mxPoint x="168" y="219" as="targetPoint" />
          </mxGeometry>
        </mxCell>
        <mxCell id="BJnJg_g0kGkfMYtrY4SE-19" value="displayPassword()" style="html=1;verticalAlign=bottom;endArrow=none;curved=0;rounded=0;startArrow=block;startFill=1;endFill=0;" parent="1" target="BJnJg_g0kGkfMYtrY4SE-22" edge="1">
          <mxGeometry relative="1" as="geometry">
            <mxPoint x="350" y="269" as="sourcePoint" />
            <mxPoint x="158" y="269" as="targetPoint" />
          </mxGeometry>
        </mxCell>
        <mxCell id="BJnJg_g0kGkfMYtrY4SE-20" value="getUsernameInput():String" style="html=1;verticalAlign=bottom;endArrow=block;curved=0;rounded=0;entryX=1;entryY=0;entryDx=0;entryDy=5;startArrow=none;startFill=0;endFill=1;" parent="1" source="BJnJg_g0kGkfMYtrY4SE-13" edge="1">
          <mxGeometry relative="1" as="geometry">
            <mxPoint x="365" y="244.5" as="sourcePoint" />
            <mxPoint x="168" y="245.5" as="targetPoint" />
          </mxGeometry>
        </mxCell>
        <mxCell id="BJnJg_g0kGkfMYtrY4SE-21" value="getPasswordInput():String" style="html=1;verticalAlign=bottom;endArrow=block;curved=0;rounded=0;entryX=1;entryY=0;entryDx=0;entryDy=5;startArrow=none;startFill=0;endFill=1;" parent="1" edge="1">
          <mxGeometry relative="1" as="geometry">
            <mxPoint x="350" y="293" as="sourcePoint" />
            <mxPoint x="168" y="293" as="targetPoint" />
          </mxGeometry>
        </mxCell>
        <mxCell id="BJnJg_g0kGkfMYtrY4SE-22" value="" style="html=1;points=[[0,0,0,0,5],[0,1,0,0,-5],[1,0,0,0,5],[1,1,0,0,-5]];perimeter=orthogonalPerimeter;outlineConnect=0;targetShapes=umlLifeline;portConstraint=eastwest;newEdgeStyle={&quot;curved&quot;:0,&quot;rounded&quot;:0};" parent="1" vertex="1">
          <mxGeometry x="158" y="192" width="10" height="318" as="geometry" />
        </mxCell>
        <mxCell id="BJnJg_g0kGkfMYtrY4SE-23" value="handleLogin()" style="html=1;align=left;spacingLeft=2;endArrow=block;rounded=0;edgeStyle=orthogonalEdgeStyle;curved=0;rounded=0;" parent="1" source="BJnJg_g0kGkfMYtrY4SE-22" edge="1">
          <mxGeometry relative="1" as="geometry">
            <mxPoint x="164" y="177" as="sourcePoint" />
            <Array as="points">
              <mxPoint x="163" y="187" />
              <mxPoint x="194" y="187" />
              <mxPoint x="194" y="207" />
            </Array>
            <mxPoint x="169" y="207.0588235294117" as="targetPoint" />
          </mxGeometry>
        </mxCell>
        <mxCell id="BJnJg_g0kGkfMYtrY4SE-24" value=":UserRepository" style="shape=umlLifeline;perimeter=lifelinePerimeter;whiteSpace=wrap;html=1;container=1;dropTarget=0;collapsible=0;recursiveResize=0;outlineConnect=0;portConstraint=eastwest;newEdgeStyle={&quot;curved&quot;:0,&quot;rounded&quot;:0};" parent="1" vertex="1">
          <mxGeometry x="454" y="133" width="100" height="900" as="geometry" />
        </mxCell>
        <mxCell id="BJnJg_g0kGkfMYtrY4SE-25" value="" style="html=1;points=[[0,0,0,0,5],[0,1,0,0,-5],[1,0,0,0,5],[1,1,0,0,-5]];perimeter=orthogonalPerimeter;outlineConnect=0;targetShapes=umlLifeline;portConstraint=eastwest;newEdgeStyle={&quot;curved&quot;:0,&quot;rounded&quot;:0};" parent="BJnJg_g0kGkfMYtrY4SE-24" vertex="1">
          <mxGeometry x="45" y="184" width="10" height="16" as="geometry" />
        </mxCell>
        <mxCell id="BJnJg_g0kGkfMYtrY4SE-26" value="" style="html=1;points=[[0,0,0,0,5],[0,1,0,0,-5],[1,0,0,0,5],[1,1,0,0,-5]];perimeter=orthogonalPerimeter;outlineConnect=0;targetShapes=umlLifeline;portConstraint=eastwest;newEdgeStyle={&quot;curved&quot;:0,&quot;rounded&quot;:0};" parent="BJnJg_g0kGkfMYtrY4SE-24" vertex="1">
          <mxGeometry x="46" y="266" width="10" height="36" as="geometry" />
        </mxCell>
        <mxCell id="BJnJg_g0kGkfMYtrY4SE-27" value="" style="endArrow=blockThin;endFill=1;endSize=12;html=1;rounded=0;" parent="1" edge="1">
          <mxGeometry width="160" relative="1" as="geometry">
            <mxPoint x="165" y="160" as="sourcePoint" />
            <mxPoint x="450" y="160" as="targetPoint" />
          </mxGeometry>
        </mxCell>
        <mxCell id="BJnJg_g0kGkfMYtrY4SE-28" value="LoginController()" style="edgeLabel;html=1;align=center;verticalAlign=middle;resizable=0;points=[];" parent="BJnJg_g0kGkfMYtrY4SE-27" connectable="0" vertex="1">
          <mxGeometry x="-0.1237" y="1" relative="1" as="geometry">
            <mxPoint y="1" as="offset" />
          </mxGeometry>
        </mxCell>
        <mxCell id="BJnJg_g0kGkfMYtrY4SE-29" value="Exception()" style="html=1;verticalAlign=bottom;endArrow=none;curved=0;rounded=0;startArrow=block;startFill=1;endFill=0;exitX=-0.073;exitY=0.643;exitDx=0;exitDy=0;exitPerimeter=0;" parent="1" edge="1">
          <mxGeometry relative="1" as="geometry">
            <mxPoint x="614.97" y="408.15" as="sourcePoint" />
            <mxPoint x="513" y="408.15" as="targetPoint" />
          </mxGeometry>
        </mxCell>
        <mxCell id="BJnJg_g0kGkfMYtrY4SE-30" value=":Exception" style="shape=umlLifeline;perimeter=lifelinePerimeter;whiteSpace=wrap;html=1;container=1;dropTarget=0;collapsible=0;recursiveResize=0;outlineConnect=0;portConstraint=eastwest;newEdgeStyle={&quot;curved&quot;:0,&quot;rounded&quot;:0};" parent="1" vertex="1">
          <mxGeometry x="619" y="390" width="100" height="643" as="geometry" />
        </mxCell>
        <mxCell id="BJnJg_g0kGkfMYtrY4SE-31" value="" style="html=1;points=[[0,0,0,0,5],[0,1,0,0,-5],[1,0,0,0,5],[1,1,0,0,-5]];perimeter=orthogonalPerimeter;outlineConnect=0;targetShapes=umlLifeline;portConstraint=eastwest;newEdgeStyle={&quot;curved&quot;:0,&quot;rounded&quot;:0};" parent="BJnJg_g0kGkfMYtrY4SE-30" vertex="1">
          <mxGeometry x="45" y="57" width="10" height="36" as="geometry" />
        </mxCell>
        <mxCell id="BJnJg_g0kGkfMYtrY4SE-32" value=":MenuController" style="shape=umlLifeline;perimeter=lifelinePerimeter;whiteSpace=wrap;html=1;container=1;dropTarget=0;collapsible=0;recursiveResize=0;outlineConnect=0;portConstraint=eastwest;newEdgeStyle={&quot;curved&quot;:0,&quot;rounded&quot;:0};" parent="1" vertex="1">
          <mxGeometry x="780" y="356" width="100" height="690" as="geometry" />
        </mxCell>
        <mxCell id="BJnJg_g0kGkfMYtrY4SE-33" value="" style="html=1;points=[[0,0,0,0,5],[0,1,0,0,-5],[1,0,0,0,5],[1,1,0,0,-5]];perimeter=orthogonalPerimeter;outlineConnect=0;targetShapes=umlLifeline;portConstraint=eastwest;newEdgeStyle={&quot;curved&quot;:0,&quot;rounded&quot;:0};" parent="BJnJg_g0kGkfMYtrY4SE-32" vertex="1">
          <mxGeometry x="45" y="69" width="10" height="291" as="geometry" />
        </mxCell>
        <mxCell id="BJnJg_g0kGkfMYtrY4SE-34" value="" style="html=1;points=[[0,0,0,0,5],[0,1,0,0,-5],[1,0,0,0,5],[1,1,0,0,-5]];perimeter=orthogonalPerimeter;outlineConnect=0;targetShapes=umlLifeline;portConstraint=eastwest;newEdgeStyle={&quot;curved&quot;:0,&quot;rounded&quot;:0};" parent="BJnJg_g0kGkfMYtrY4SE-32" vertex="1">
          <mxGeometry x="52" y="319" width="10" height="30" as="geometry" />
        </mxCell>
        <mxCell id="BJnJg_g0kGkfMYtrY4SE-35" value="navigateToMenu()" style="html=1;verticalAlign=bottom;endArrow=none;curved=0;rounded=0;entryX=1;entryY=0;entryDx=0;entryDy=5;startArrow=block;startFill=1;endFill=0;jumpSize=6;" parent="1" edge="1">
          <mxGeometry relative="1" as="geometry">
            <mxPoint x="771" y="374" as="sourcePoint" />
            <mxPoint x="172" y="372" as="targetPoint" />
          </mxGeometry>
        </mxCell>
        <mxCell id="BJnJg_g0kGkfMYtrY4SE-36" value="[else]" style="text;html=1;align=center;verticalAlign=middle;resizable=0;points=[];autosize=1;strokeColor=none;fillColor=none;" parent="1" vertex="1">
          <mxGeometry x="75" y="384" width="50" height="30" as="geometry" />
        </mxCell>
        <mxCell id="BJnJg_g0kGkfMYtrY4SE-37" value="[successful&lt;br&gt;login]" style="text;html=1;align=center;verticalAlign=middle;resizable=0;points=[];autosize=1;strokeColor=none;fillColor=none;" parent="1" vertex="1">
          <mxGeometry x="65" y="335" width="80" height="40" as="geometry" />
        </mxCell>
        <mxCell id="BJnJg_g0kGkfMYtrY4SE-38" value="showErrorMessage(Exception)" style="html=1;verticalAlign=bottom;endArrow=block;curved=0;rounded=0;entryX=1;entryY=0;entryDx=0;entryDy=5;startArrow=none;startFill=0;endFill=1;" parent="1" edge="1">
          <mxGeometry relative="1" as="geometry">
            <mxPoint x="350" y="473" as="sourcePoint" />
            <mxPoint x="168" y="473" as="targetPoint" />
          </mxGeometry>
        </mxCell>
        <mxCell id="BJnJg_g0kGkfMYtrY4SE-39" value=":MenuView" style="shape=umlLifeline;perimeter=lifelinePerimeter;whiteSpace=wrap;html=1;container=1;dropTarget=0;collapsible=0;recursiveResize=0;outlineConnect=0;portConstraint=eastwest;newEdgeStyle={&quot;curved&quot;:0,&quot;rounded&quot;:0};" parent="1" vertex="1">
          <mxGeometry x="962" y="400" width="100" height="690" as="geometry" />
        </mxCell>
        <mxCell id="BJnJg_g0kGkfMYtrY4SE-40" value="" style="html=1;points=[[0,0,0,0,5],[0,1,0,0,-5],[1,0,0,0,5],[1,1,0,0,-5]];perimeter=orthogonalPerimeter;outlineConnect=0;targetShapes=umlLifeline;portConstraint=eastwest;newEdgeStyle={&quot;curved&quot;:0,&quot;rounded&quot;:0};" parent="BJnJg_g0kGkfMYtrY4SE-39" vertex="1">
          <mxGeometry x="46" y="100" width="10" height="70" as="geometry" />
        </mxCell>
        <mxCell id="BJnJg_g0kGkfMYtrY4SE-41" value="MenuController()" style="html=1;verticalAlign=bottom;endArrow=none;curved=0;rounded=0;startArrow=block;startFill=1;endFill=0;" parent="1" edge="1">
          <mxGeometry relative="1" as="geometry">
            <mxPoint x="950" y="428" as="sourcePoint" />
            <mxPoint x="840" y="428" as="targetPoint" />
          </mxGeometry>
        </mxCell>
        <mxCell id="BJnJg_g0kGkfMYtrY4SE-42" value="" style="html=1;points=[[0,0,0,0,5],[0,1,0,0,-5],[1,0,0,0,5],[1,1,0,0,-5]];perimeter=orthogonalPerimeter;outlineConnect=0;targetShapes=umlLifeline;portConstraint=eastwest;newEdgeStyle={&quot;curved&quot;:0,&quot;rounded&quot;:0};" parent="1" vertex="1">
          <mxGeometry x="830" y="470" width="10" height="80" as="geometry" />
        </mxCell>
        <mxCell id="BJnJg_g0kGkfMYtrY4SE-43" value="handleMenu()" style="html=1;align=left;spacingLeft=2;endArrow=block;rounded=0;edgeStyle=orthogonalEdgeStyle;curved=0;rounded=0;" parent="1" target="BJnJg_g0kGkfMYtrY4SE-42" edge="1">
          <mxGeometry relative="1" as="geometry">
            <mxPoint x="835" y="450" as="sourcePoint" />
            <Array as="points">
              <mxPoint x="865" y="480" />
            </Array>
          </mxGeometry>
        </mxCell>
        <mxCell id="BJnJg_g0kGkfMYtrY4SE-44" value=":Student" style="shape=umlLifeline;perimeter=lifelinePerimeter;whiteSpace=wrap;html=1;container=1;dropTarget=0;collapsible=0;recursiveResize=0;outlineConnect=0;portConstraint=eastwest;newEdgeStyle={&quot;curved&quot;:0,&quot;rounded&quot;:0};" parent="1" vertex="1">
          <mxGeometry x="1313" y="320" width="97" height="740" as="geometry" />
        </mxCell>
        <mxCell id="BJnJg_g0kGkfMYtrY4SE-45" value="" style="html=1;points=[[0,0,0,0,5],[0,1,0,0,-5],[1,0,0,0,5],[1,1,0,0,-5]];perimeter=orthogonalPerimeter;outlineConnect=0;targetShapes=umlLifeline;portConstraint=eastwest;newEdgeStyle={&quot;curved&quot;:0,&quot;rounded&quot;:0};" parent="BJnJg_g0kGkfMYtrY4SE-44" vertex="1">
          <mxGeometry x="43.5" y="64" width="10" height="80" as="geometry" />
        </mxCell>
        <mxCell id="BJnJg_g0kGkfMYtrY4SE-46" value="" style="html=1;points=[[0,0,0,0,5],[0,1,0,0,-5],[1,0,0,0,5],[1,1,0,0,-5]];perimeter=orthogonalPerimeter;outlineConnect=0;targetShapes=umlLifeline;portConstraint=eastwest;newEdgeStyle={&quot;curved&quot;:0,&quot;rounded&quot;:0};" parent="1" vertex="1">
          <mxGeometry x="831" y="600" width="10" height="40" as="geometry" />
        </mxCell>
        <mxCell id="BJnJg_g0kGkfMYtrY4SE-47" value="convertEnum(String)" style="html=1;align=left;spacingLeft=2;endArrow=block;rounded=0;edgeStyle=orthogonalEdgeStyle;curved=0;rounded=0;" parent="1" target="BJnJg_g0kGkfMYtrY4SE-46" edge="1">
          <mxGeometry relative="1" as="geometry">
            <mxPoint x="836" y="580" as="sourcePoint" />
            <Array as="points">
              <mxPoint x="866" y="610" />
            </Array>
          </mxGeometry>
        </mxCell>
        <mxCell id="BJnJg_g0kGkfMYtrY4SE-48" value=":Menu" style="shape=umlLifeline;perimeter=lifelinePerimeter;whiteSpace=wrap;html=1;container=1;dropTarget=0;collapsible=0;recursiveResize=0;outlineConnect=0;portConstraint=eastwest;newEdgeStyle={&quot;curved&quot;:0,&quot;rounded&quot;:0};" parent="1" vertex="1">
          <mxGeometry x="1100" y="590" width="100" height="480" as="geometry" />
        </mxCell>
        <mxCell id="BJnJg_g0kGkfMYtrY4SE-49" value="" style="html=1;points=[[0,0,0,0,5],[0,1,0,0,-5],[1,0,0,0,5],[1,1,0,0,-5]];perimeter=orthogonalPerimeter;outlineConnect=0;targetShapes=umlLifeline;portConstraint=eastwest;newEdgeStyle={&quot;curved&quot;:0,&quot;rounded&quot;:0};" parent="BJnJg_g0kGkfMYtrY4SE-48" vertex="1">
          <mxGeometry x="45" y="71" width="10" height="219" as="geometry" />
        </mxCell>
        <mxCell id="BJnJg_g0kGkfMYtrY4SE-50" value="return" style="html=1;verticalAlign=bottom;endArrow=block;dashed=1;endSize=8;curved=0;rounded=0;endFill=1;" parent="1" edge="1">
          <mxGeometry relative="1" as="geometry">
            <mxPoint x="1100" y="623" as="sourcePoint" />
            <mxPoint x="850" y="623" as="targetPoint" />
          </mxGeometry>
        </mxCell>
      </root>
    </mxGraphModel>
  </diagram>
</mxfile>
